<svg width="252" height="54" viewBox="0 0 252 54" fill="none" xmlns="http://www.w3.org/2000/svg">
<path d="M0 21.5C0 11.2827 8.2818 3 18.4979 3H26.7082C28.1833 3 29.3791 4.19579 29.3791 5.67088V5.67088C29.3791 7.14597 28.1833 8.34176 26.7082 8.34176H18.4979C11.2316 8.34176 5.34116 14.2329 5.34116 21.5C5.34116 28.7671 11.2316 34.6582 18.4979 34.6582H28.0034C29.4699 34.6582 30.6588 33.4692 30.6588 32.0024C30.6588 30.5357 29.4699 29.3467 28.0034 29.3467H18.6488C14.2324 29.3467 10.6521 25.766 10.6521 21.3491C10.6521 16.9322 14.2324 13.3515 18.6488 13.3515H20.6822C22.1424 13.3515 23.3261 14.5354 23.3261 15.9957C23.3261 17.4856 22.1185 18.6933 20.6288 18.6933H18.6488C17.1822 18.6933 15.9933 19.8823 15.9933 21.3491C15.9933 22.8159 17.1822 24.0049 18.6488 24.0049H28.0034C32.4198 24.0049 36 27.5855 36 32.0024C36 36.4194 32.4198 40 28.0034 40H18.4979C8.2818 40 0 31.7173 0 21.5Z" fill="#6179FF"/>
<path d="M59.4544 15.25C59.2953 14.697 59.0718 14.2083 58.784 13.7841C58.4961 13.3523 58.1438 12.9886 57.7272 12.6932C57.3181 12.3902 56.8484 12.1591 56.3181 12C55.7953 11.8409 55.2158 11.7614 54.5794 11.7614C53.39 11.7614 52.3446 12.0568 51.4431 12.6477C50.5491 13.2386 49.8522 14.0985 49.3522 15.2273C48.8522 16.3485 48.6022 17.7197 48.6022 19.3409C48.6022 20.9621 48.8484 22.3409 49.3408 23.4773C49.8332 24.6136 50.5302 25.4811 51.4317 26.0795C52.3332 26.6705 53.3976 26.9659 54.6249 26.9659C55.7385 26.9659 56.6893 26.7689 57.4772 26.375C58.2726 25.9735 58.8787 25.4091 59.2953 24.6818C59.7196 23.9545 59.9317 23.0947 59.9317 22.1023L60.9317 22.25H54.9317V18.5455H64.6703V21.4773C64.6703 23.5227 64.2385 25.2803 63.3749 26.75C62.5112 28.2121 61.3218 29.3409 59.8067 30.1364C58.2915 30.9242 56.5567 31.3182 54.6022 31.3182C52.4203 31.3182 50.5037 30.8371 48.8522 29.875C47.2006 28.9053 45.9128 27.5303 44.9885 25.75C44.0718 23.9621 43.6135 21.8409 43.6135 19.3864C43.6135 17.5 43.8862 15.8182 44.4317 14.3409C44.9847 12.8561 45.7575 11.5985 46.7499 10.5682C47.7423 9.53788 48.8976 8.75379 50.2158 8.21591C51.534 7.67803 52.962 7.40909 54.4999 7.40909C55.8181 7.40909 57.0453 7.60227 58.1817 7.98864C59.3181 8.36742 60.3256 8.9053 61.2044 9.60227C62.0908 10.2992 62.8143 11.1288 63.3749 12.0909C63.9355 13.0455 64.2953 14.0985 64.4544 15.25H59.4544ZM71.9727 31.3295C70.8591 31.3295 69.8667 31.1364 68.9954 30.75C68.1242 30.3561 67.4348 29.7765 66.9273 29.0114C66.4273 28.2386 66.1773 27.2765 66.1773 26.125C66.1773 25.1553 66.3553 24.3409 66.7114 23.6818C67.0674 23.0227 67.5523 22.4924 68.1659 22.0909C68.7795 21.6894 69.4765 21.3864 70.2568 21.1818C71.0447 20.9773 71.8704 20.8333 72.7341 20.75C73.7492 20.6439 74.5674 20.5455 75.1886 20.4545C75.8098 20.3561 76.2606 20.2121 76.5409 20.0227C76.8212 19.8333 76.9614 19.553 76.9614 19.1818V19.1136C76.9614 18.3939 76.7341 17.8371 76.2795 17.4432C75.8326 17.0492 75.1962 16.8523 74.3704 16.8523C73.4992 16.8523 72.8061 17.0455 72.2909 17.4318C71.7757 17.8106 71.4348 18.2879 71.2682 18.8636L66.7909 18.5C67.0182 17.4394 67.4651 16.5227 68.1318 15.75C68.7985 14.9697 69.6583 14.3712 70.7114 13.9545C71.772 13.5303 72.9992 13.3182 74.3932 13.3182C75.3629 13.3182 76.2909 13.4318 77.1773 13.6591C78.0712 13.8864 78.8629 14.2386 79.5523 14.7159C80.2492 15.1932 80.7985 15.8068 81.2 16.5568C81.6015 17.2992 81.8023 18.1894 81.8023 19.2273V31H77.2114V28.5795H77.075C76.7947 29.125 76.4197 29.6061 75.95 30.0227C75.4803 30.4318 74.9159 30.7538 74.2568 30.9886C73.5977 31.2159 72.8364 31.3295 71.9727 31.3295ZM73.3591 27.9886C74.0712 27.9886 74.7 27.8485 75.2454 27.5682C75.7909 27.2803 76.2189 26.8939 76.5295 26.4091C76.8401 25.9242 76.9954 25.375 76.9954 24.7614V22.9091C76.8439 23.0076 76.6356 23.0985 76.3704 23.1818C76.1129 23.2576 75.8212 23.3295 75.4954 23.3977C75.1697 23.4583 74.8439 23.5152 74.5182 23.5682C74.1924 23.6136 73.897 23.6553 73.6318 23.6932C73.0636 23.7765 72.5674 23.9091 72.1432 24.0909C71.7189 24.2727 71.3894 24.5189 71.1545 24.8295C70.9197 25.1326 70.8023 25.5114 70.8023 25.9659C70.8023 26.625 71.0409 27.1288 71.5182 27.4773C72.003 27.8182 72.6167 27.9886 73.3591 27.9886ZM84.3689 31V7.72727H89.2098V16.4773H89.3575C89.5696 16.0076 89.8764 15.5303 90.2779 15.0455C90.687 14.553 91.2173 14.1439 91.8689 13.8182C92.5279 13.4848 93.3461 13.3182 94.3234 13.3182C95.5961 13.3182 96.7704 13.6515 97.8461 14.3182C98.9219 14.9773 99.7817 15.9735 100.426 17.3068C101.07 18.6326 101.392 20.2955 101.392 22.2955C101.392 24.2424 101.077 25.8864 100.448 27.2273C99.8272 28.5606 98.9787 29.572 97.9029 30.2614C96.8348 30.9432 95.6378 31.2841 94.312 31.2841C93.3726 31.2841 92.5734 31.1288 91.9143 30.8182C91.2628 30.5076 90.7287 30.1174 90.312 29.6477C89.8954 29.1705 89.5772 28.6894 89.3575 28.2045H89.1416V31H84.3689ZM89.1075 22.2727C89.1075 23.3106 89.2514 24.2159 89.5393 24.9886C89.8272 25.7614 90.2439 26.3636 90.7893 26.7955C91.3348 27.2197 91.9976 27.4318 92.7779 27.4318C93.5658 27.4318 94.2325 27.2159 94.7779 26.7841C95.3234 26.3447 95.7363 25.7386 96.0166 24.9659C96.3045 24.1856 96.4484 23.2879 96.4484 22.2727C96.4484 21.2652 96.3082 20.3788 96.0279 19.6136C95.7476 18.8485 95.3348 18.25 94.7893 17.8182C94.2439 17.3864 93.5734 17.1705 92.7779 17.1705C91.9901 17.1705 91.3234 17.3788 90.7779 17.7955C90.2401 18.2121 89.8272 18.803 89.5393 19.5682C89.2514 20.3333 89.1075 21.2348 89.1075 22.2727ZM103.342 31V13.5455H108.183V31H103.342ZM105.774 11.2955C105.054 11.2955 104.436 11.0568 103.921 10.5795C103.414 10.0947 103.16 9.51515 103.16 8.84091C103.16 8.17424 103.414 7.60227 103.921 7.125C104.436 6.64015 105.054 6.39773 105.774 6.39773C106.493 6.39773 107.107 6.64015 107.614 7.125C108.13 7.60227 108.387 8.17424 108.387 8.84091C108.387 9.51515 108.13 10.0947 107.614 10.5795C107.107 11.0568 106.493 11.2955 105.774 11.2955ZM129.623 14.4205C129.532 13.5038 129.142 12.7917 128.452 12.2841C127.763 11.7765 126.827 11.5227 125.645 11.5227C124.842 11.5227 124.164 11.6364 123.611 11.8636C123.058 12.0833 122.634 12.3902 122.339 12.7841C122.051 13.178 121.907 13.625 121.907 14.125C121.892 14.5417 121.979 14.9053 122.168 15.2159C122.365 15.5265 122.634 15.7955 122.975 16.0227C123.316 16.2424 123.71 16.4356 124.157 16.6023C124.604 16.7614 125.081 16.8977 125.589 17.0114L127.679 17.5114C128.695 17.7386 129.626 18.0417 130.475 18.4205C131.323 18.7992 132.058 19.2652 132.679 19.8182C133.301 20.3712 133.782 21.0227 134.123 21.7727C134.471 22.5227 134.649 23.3826 134.657 24.3523C134.649 25.7765 134.285 27.0114 133.566 28.0568C132.854 29.0947 131.823 29.9015 130.475 30.4773C129.134 31.0455 127.517 31.3295 125.623 31.3295C123.744 31.3295 122.107 31.0417 120.714 30.4659C119.327 29.8902 118.244 29.0379 117.464 27.9091C116.691 26.7727 116.285 25.3674 116.248 23.6932H121.009C121.062 24.4735 121.285 25.125 121.679 25.6477C122.081 26.1629 122.615 26.553 123.282 26.8182C123.956 27.0758 124.717 27.2045 125.566 27.2045C126.399 27.2045 127.123 27.0833 127.736 26.8409C128.357 26.5985 128.839 26.2614 129.179 25.8295C129.52 25.3977 129.691 24.9015 129.691 24.3409C129.691 23.8182 129.535 23.3788 129.225 23.0227C128.922 22.6667 128.475 22.3636 127.884 22.1136C127.301 21.8636 126.585 21.6364 125.736 21.4318L123.202 20.7955C121.24 20.3182 119.691 19.572 118.554 18.5568C117.418 17.5417 116.854 16.1742 116.861 14.4545C116.854 13.0455 117.229 11.8144 117.986 10.7614C118.751 9.70833 119.801 8.88636 121.134 8.29545C122.467 7.70454 123.982 7.40909 125.679 7.40909C127.407 7.40909 128.914 7.70454 130.202 8.29545C131.498 8.88636 132.505 9.70833 133.225 10.7614C133.945 11.8144 134.316 13.0341 134.339 14.4205H129.623ZM144.482 31.3409C142.694 31.3409 141.156 30.9621 139.868 30.2045C138.588 29.4394 137.603 28.3788 136.914 27.0227C136.232 25.6667 135.891 24.1061 135.891 22.3409C135.891 20.553 136.236 18.9848 136.925 17.6364C137.622 16.2803 138.611 15.2235 139.891 14.4659C141.171 13.7008 142.694 13.3182 144.459 13.3182C145.982 13.3182 147.315 13.5947 148.459 14.1477C149.603 14.7008 150.508 15.4773 151.175 16.4773C151.842 17.4773 152.209 18.6515 152.277 20H147.709C147.58 19.1288 147.239 18.428 146.686 17.8977C146.141 17.3598 145.425 17.0909 144.539 17.0909C143.789 17.0909 143.133 17.2955 142.573 17.7045C142.02 18.1061 141.588 18.6932 141.277 19.4659C140.967 20.2386 140.811 21.1742 140.811 22.2727C140.811 23.3864 140.963 24.3333 141.266 25.1136C141.577 25.8939 142.012 26.4886 142.573 26.8977C143.133 27.3068 143.789 27.5114 144.539 27.5114C145.092 27.5114 145.588 27.3977 146.027 27.1705C146.474 26.9432 146.842 26.6136 147.13 26.1818C147.425 25.7424 147.618 25.2159 147.709 24.6023H152.277C152.202 25.9356 151.838 27.1098 151.186 28.125C150.542 29.1326 149.652 29.9205 148.516 30.4886C147.38 31.0568 146.035 31.3409 144.482 31.3409ZM158.938 20.9091V31H154.097V7.72727H158.801V16.625H159.006C159.4 15.5947 160.036 14.7879 160.915 14.2045C161.794 13.6136 162.896 13.3182 164.222 13.3182C165.434 13.3182 166.491 13.5833 167.392 14.1136C168.301 14.6364 169.006 15.3902 169.506 16.375C170.013 17.3523 170.263 18.5227 170.256 19.8864V31H165.415V20.75C165.422 19.6742 165.15 18.8371 164.597 18.2386C164.051 17.6402 163.286 17.3409 162.301 17.3409C161.642 17.3409 161.059 17.4811 160.551 17.7614C160.051 18.0417 159.657 18.4508 159.369 18.9886C159.089 19.5189 158.945 20.1591 158.938 20.9091ZM172.785 31V13.5455H177.626V31H172.785ZM175.217 11.2955C174.498 11.2955 173.88 11.0568 173.365 10.5795C172.857 10.0947 172.604 9.51515 172.604 8.84091C172.604 8.17424 172.857 7.60227 173.365 7.125C173.88 6.64015 174.498 6.39773 175.217 6.39773C175.937 6.39773 176.551 6.64015 177.058 7.125C177.573 7.60227 177.831 8.17424 177.831 8.84091C177.831 9.51515 177.573 10.0947 177.058 10.5795C176.551 11.0568 175.937 11.2955 175.217 11.2955ZM188.111 31.3409C186.345 31.3409 184.819 30.9659 183.531 30.2159C182.251 29.4583 181.262 28.4053 180.565 27.0568C179.868 25.7008 179.52 24.1288 179.52 22.3409C179.52 20.5379 179.868 18.9621 180.565 17.6136C181.262 16.2576 182.251 15.2045 183.531 14.4545C184.819 13.697 186.345 13.3182 188.111 13.3182C189.876 13.3182 191.398 13.697 192.679 14.4545C193.967 15.2045 194.959 16.2576 195.656 17.6136C196.353 18.9621 196.701 20.5379 196.701 22.3409C196.701 24.1288 196.353 25.7008 195.656 27.0568C194.959 28.4053 193.967 29.4583 192.679 30.2159C191.398 30.9659 189.876 31.3409 188.111 31.3409ZM188.133 27.5909C188.936 27.5909 189.607 27.3636 190.145 26.9091C190.683 26.447 191.088 25.8182 191.361 25.0227C191.641 24.2273 191.781 23.322 191.781 22.3068C191.781 21.2917 191.641 20.3864 191.361 19.5909C191.088 18.7955 190.683 18.1667 190.145 17.7045C189.607 17.2424 188.936 17.0114 188.133 17.0114C187.323 17.0114 186.641 17.2424 186.088 17.7045C185.542 18.1667 185.129 18.7955 184.849 19.5909C184.576 20.3864 184.44 21.2917 184.44 22.3068C184.44 23.322 184.576 24.2273 184.849 25.0227C185.129 25.8182 185.542 26.447 186.088 26.9091C186.641 27.3636 187.323 27.5909 188.133 27.5909ZM198.569 37.5455V13.5455H203.342V16.4773H203.558C203.77 16.0076 204.077 15.5303 204.478 15.0455C204.887 14.553 205.418 14.1439 206.069 13.8182C206.728 13.4848 207.546 13.3182 208.524 13.3182C209.796 13.3182 210.971 13.6515 212.046 14.3182C213.122 14.9773 213.982 15.9735 214.626 17.3068C215.27 18.6326 215.592 20.2955 215.592 22.2955C215.592 24.2424 215.278 25.8864 214.649 27.2273C214.028 28.5606 213.179 29.572 212.103 30.2614C211.035 30.9432 209.838 31.2841 208.512 31.2841C207.573 31.2841 206.774 31.1288 206.115 30.8182C205.463 30.5076 204.929 30.1174 204.512 29.6477C204.096 29.1705 203.778 28.6894 203.558 28.2045H203.41V37.5455H198.569ZM203.308 22.2727C203.308 23.3106 203.452 24.2159 203.74 24.9886C204.028 25.7614 204.444 26.3636 204.99 26.7955C205.535 27.2197 206.198 27.4318 206.978 27.4318C207.766 27.4318 208.433 27.2159 208.978 26.7841C209.524 26.3447 209.937 25.7386 210.217 24.9659C210.505 24.1856 210.649 23.2879 210.649 22.2727C210.649 21.2652 210.509 20.3788 210.228 19.6136C209.948 18.8485 209.535 18.25 208.99 17.8182C208.444 17.3864 207.774 17.1705 206.978 17.1705C206.19 17.1705 205.524 17.3788 204.978 17.7955C204.44 18.2121 204.028 18.803 203.74 19.5682C203.452 20.3333 203.308 21.2348 203.308 22.2727ZM228.732 23.5682V13.5455H233.573V31H228.926V27.8295H228.744C228.35 28.8523 227.694 29.6742 226.778 30.2955C225.869 30.9167 224.759 31.2273 223.448 31.2273C222.282 31.2273 221.255 30.9621 220.369 30.4318C219.482 29.9015 218.789 29.1477 218.289 28.1705C217.797 27.1932 217.547 26.0227 217.539 24.6591V13.5455H222.38V23.7955C222.388 24.8258 222.664 25.6402 223.21 26.2386C223.755 26.8371 224.486 27.1364 225.403 27.1364C225.986 27.1364 226.532 27.0038 227.039 26.7386C227.547 26.4659 227.956 26.0644 228.266 25.5341C228.585 25.0038 228.74 24.3485 228.732 23.5682Z" fill="#1D2327"/>
<path d="M46.5546 50H45.2733L48.1522 42H49.5468L52.4257 50H51.1444L48.8827 43.4531H48.8202L46.5546 50ZM46.7694 46.8672H50.9257V47.8828H46.7694V46.8672ZM54.7898 50L52.5711 42H53.8406L55.3992 48.1953H55.4734L57.0945 42H58.3523L59.9734 48.1992H60.0477L61.6023 42H62.8758L60.6531 50H59.4383L57.7547 44.0078H57.6922L56.0086 50H54.7898ZM64.3064 50V42H69.322V43.0391H65.5134V45.4766H69.0603V46.5117H65.5134V48.9609H69.3689V50H64.3064ZM75.6276 44.1016C75.5859 43.7318 75.414 43.4453 75.1119 43.2422C74.8099 43.0365 74.4297 42.9336 73.9713 42.9336C73.6432 42.9336 73.3593 42.9857 73.1198 43.0898C72.8802 43.1914 72.694 43.332 72.5612 43.5117C72.431 43.6888 72.3659 43.8906 72.3659 44.1172C72.3659 44.3073 72.4101 44.4714 72.4987 44.6094C72.5898 44.7474 72.7083 44.8633 72.8541 44.957C73.0026 45.0482 73.1614 45.125 73.3307 45.1875C73.5 45.2474 73.6627 45.2969 73.819 45.3359L74.6002 45.5391C74.8554 45.6016 75.1172 45.6862 75.3854 45.793C75.6536 45.8997 75.9023 46.0404 76.1315 46.2148C76.3606 46.3893 76.5455 46.6055 76.6862 46.8633C76.8294 47.1211 76.901 47.4297 76.901 47.7891C76.901 48.2422 76.7838 48.6445 76.5494 48.9961C76.3177 49.3477 75.9804 49.625 75.5377 49.8281C75.0976 50.0313 74.5651 50.1328 73.9401 50.1328C73.3411 50.1328 72.8229 50.0378 72.3854 49.8477C71.9479 49.6576 71.6054 49.388 71.358 49.0391C71.1106 48.6875 70.9739 48.2708 70.9479 47.7891H72.1588C72.1823 48.0781 72.276 48.319 72.4401 48.5117C72.6067 48.7018 72.819 48.8437 73.0768 48.9375C73.3372 49.0286 73.6224 49.0742 73.9323 49.0742C74.2734 49.0742 74.5768 49.0208 74.8424 48.9141C75.1106 48.8047 75.3216 48.6536 75.4752 48.4609C75.6289 48.2656 75.7057 48.0378 75.7057 47.7773C75.7057 47.5404 75.638 47.3464 75.5026 47.1953C75.3698 47.0443 75.1888 46.9193 74.9596 46.8203C74.733 46.7214 74.4765 46.6341 74.1901 46.5586L73.2448 46.3008C72.6041 46.1263 72.0963 45.8698 71.7213 45.5312C71.3489 45.1927 71.1627 44.7448 71.1627 44.1875C71.1627 43.7266 71.2877 43.3242 71.5377 42.9805C71.7877 42.6367 72.1263 42.3698 72.5534 42.1797C72.9804 41.987 73.4622 41.8906 73.9987 41.8906C74.5403 41.8906 75.0182 41.9857 75.4323 42.1758C75.8489 42.3659 76.1771 42.6276 76.4166 42.9609C76.6562 43.2917 76.7812 43.6719 76.7916 44.1016H75.6276ZM85.6226 46C85.6226 46.8542 85.4664 47.5885 85.1539 48.2031C84.8414 48.8151 84.413 49.2865 83.8687 49.6172C83.327 49.9453 82.7112 50.1094 82.021 50.1094C81.3283 50.1094 80.7099 49.9453 80.1656 49.6172C79.6239 49.2865 79.1968 48.8138 78.8843 48.1992C78.5718 47.5846 78.4156 46.8516 78.4156 46C78.4156 45.1458 78.5718 44.4128 78.8843 43.8008C79.1968 43.1862 79.6239 42.7148 80.1656 42.3867C80.7099 42.056 81.3283 41.8906 82.021 41.8906C82.7112 41.8906 83.327 42.056 83.8687 42.3867C84.413 42.7148 84.8414 43.1862 85.1539 43.8008C85.4664 44.4128 85.6226 45.1458 85.6226 46ZM84.4273 46C84.4273 45.349 84.3218 44.8008 84.1109 44.3555C83.9026 43.9076 83.6161 43.569 83.2515 43.3398C82.8895 43.1081 82.4794 42.9922 82.021 42.9922C81.5601 42.9922 81.1487 43.1081 80.7867 43.3398C80.4247 43.569 80.1382 43.9076 79.9273 44.3555C79.719 44.8008 79.6148 45.349 79.6148 46C79.6148 46.651 79.719 47.2005 79.9273 47.6484C80.1382 48.0937 80.4247 48.4323 80.7867 48.6641C81.1487 48.8932 81.5601 49.0078 82.021 49.0078C82.4794 49.0078 82.8895 48.8932 83.2515 48.6641C83.6161 48.4323 83.9026 48.0937 84.1109 47.6484C84.3218 47.2005 84.4273 46.651 84.4273 46ZM87.4575 42H88.9223L91.4692 48.2187H91.563L94.1098 42H95.5747V50H94.4262V44.2109H94.352L91.9927 49.9883H91.0395L88.6802 44.207H88.6059V50H87.4575V42ZM97.6596 50V42H102.675V43.0391H98.8666V45.4766H102.413V46.5117H98.8666V48.9609H102.722V50H97.6596ZM107.859 42H109.323L111.87 48.2187H111.964L114.511 42H115.976V50H114.827V44.2109H114.753L112.394 49.9883H111.441L109.081 44.207H109.007V50H107.859V42ZM125.01 46C125.01 46.8542 124.854 47.5885 124.541 48.2031C124.229 48.8151 123.8 49.2865 123.256 49.6172C122.714 49.9453 122.098 50.1094 121.408 50.1094C120.716 50.1094 120.097 49.9453 119.553 49.6172C119.011 49.2865 118.584 48.8138 118.272 48.1992C117.959 47.5846 117.803 46.8516 117.803 46C117.803 45.1458 117.959 44.4128 118.272 43.8008C118.584 43.1862 119.011 42.7148 119.553 42.3867C120.097 42.056 120.716 41.8906 121.408 41.8906C122.098 41.8906 122.714 42.056 123.256 42.3867C123.8 42.7148 124.229 43.1862 124.541 43.8008C124.854 44.4128 125.01 45.1458 125.01 46ZM123.815 46C123.815 45.349 123.709 44.8008 123.498 44.3555C123.29 43.9076 123.003 43.569 122.639 43.3398C122.277 43.1081 121.867 42.9922 121.408 42.9922C120.947 42.9922 120.536 43.1081 120.174 43.3398C119.812 43.569 119.526 43.9076 119.315 44.3555C119.106 44.8008 119.002 45.349 119.002 46C119.002 46.651 119.106 47.2005 119.315 47.6484C119.526 48.0937 119.812 48.4323 120.174 48.6641C120.536 48.8932 120.947 49.0078 121.408 49.0078C121.867 49.0078 122.277 48.8932 122.639 48.6641C123.003 48.4323 123.29 48.0937 123.498 47.6484C123.709 47.2005 123.815 46.651 123.815 46ZM126.107 43.0391V42H132.298V43.0391H129.802V50H128.599V43.0391H126.107ZM135.203 42V50H133.996V42H135.203ZM137.99 42L140.217 48.5156H140.307L142.533 42H143.838L140.959 50H139.564L136.685 42H137.99ZM145.323 50V42H150.339V43.0391H146.53V45.4766H150.077V46.5117H146.53V48.9609H150.386V50H145.323ZM156.198 50H154.917L157.796 42H159.19L162.069 50H160.788L158.526 43.4531H158.464L156.198 50ZM156.413 46.8672H160.569V47.8828H156.413V46.8672ZM163.554 50V42H166.406C167.028 42 167.544 42.1133 167.953 42.3398C168.362 42.5664 168.668 42.8763 168.871 43.2695C169.074 43.6602 169.175 44.1003 169.175 44.5898C169.175 45.082 169.073 45.5247 168.867 45.918C168.664 46.3086 168.356 46.6185 167.945 46.8477C167.536 47.0742 167.022 47.1875 166.402 47.1875H164.441V46.1641H166.293C166.686 46.1641 167.005 46.0964 167.25 45.9609C167.494 45.8229 167.674 45.6354 167.789 45.3984C167.903 45.1615 167.961 44.8919 167.961 44.5898C167.961 44.2878 167.903 44.0195 167.789 43.7852C167.674 43.5508 167.493 43.3672 167.246 43.2344C167.001 43.1016 166.678 43.0352 166.277 43.0352H164.761V50H163.554ZM172.127 42V50H170.92V42H172.127ZM177.456 50V42H180.308C180.93 42 181.446 42.1133 181.855 42.3398C182.264 42.5664 182.57 42.8763 182.773 43.2695C182.976 43.6602 183.077 44.1003 183.077 44.5898C183.077 45.082 182.975 45.5247 182.769 45.918C182.566 46.3086 182.258 46.6185 181.847 46.8477C181.438 47.0742 180.924 47.1875 180.304 47.1875H178.343V46.1641H180.195C180.588 46.1641 180.907 46.0964 181.152 45.9609C181.397 45.8229 181.576 45.6354 181.691 45.3984C181.805 45.1615 181.863 44.8919 181.863 44.5898C181.863 44.2878 181.805 44.0195 181.691 43.7852C181.576 43.5508 181.395 43.3672 181.148 43.2344C180.903 43.1016 180.58 43.0352 180.179 43.0352H178.663V50H177.456ZM184.823 50V42H186.03V48.9609H189.655V50H184.823ZM196.506 42H197.717V47.2617C197.717 47.8216 197.585 48.3177 197.322 48.75C197.059 49.1797 196.69 49.5182 196.213 49.7656C195.737 50.0104 195.178 50.1328 194.537 50.1328C193.899 50.1328 193.342 50.0104 192.865 49.7656C192.389 49.5182 192.019 49.1797 191.756 48.75C191.493 48.3177 191.362 47.8216 191.362 47.2617V42H192.569V47.1641C192.569 47.526 192.648 47.8477 192.807 48.1289C192.968 48.4102 193.196 48.6315 193.49 48.793C193.785 48.9518 194.134 49.0312 194.537 49.0312C194.944 49.0312 195.294 48.9518 195.588 48.793C195.885 48.6315 196.112 48.4102 196.268 48.1289C196.427 47.8477 196.506 47.526 196.506 47.1641V42ZM205.216 44.5273C205.14 44.2904 205.039 44.0781 204.911 43.8906C204.786 43.7005 204.637 43.5391 204.462 43.4063C204.288 43.2708 204.088 43.168 203.864 43.0977C203.643 43.0273 203.4 42.9922 203.134 42.9922C202.683 42.9922 202.277 43.1081 201.915 43.3398C201.553 43.5716 201.267 43.9115 201.056 44.3594C200.847 44.8047 200.743 45.3503 200.743 45.9961C200.743 46.6445 200.849 47.1927 201.06 47.6406C201.271 48.0885 201.56 48.4284 201.927 48.6602C202.294 48.8919 202.712 49.0078 203.181 49.0078C203.616 49.0078 203.995 48.9193 204.317 48.7422C204.643 48.5651 204.894 48.3151 205.071 47.9922C205.251 47.6667 205.341 47.2839 205.341 46.8438L205.653 46.9023H203.364V45.9062H206.509V46.8164C206.509 47.4883 206.366 48.0716 206.079 48.5664C205.795 49.0586 205.402 49.4388 204.9 49.707C204.4 49.9753 203.827 50.1094 203.181 50.1094C202.457 50.1094 201.821 49.9427 201.275 49.6094C200.73 49.276 200.306 48.8034 200.001 48.1914C199.696 47.5768 199.544 46.8477 199.544 46.0039C199.544 45.3659 199.633 44.793 199.81 44.2852C199.987 43.7773 200.235 43.3464 200.556 42.9922C200.879 42.6354 201.258 42.3633 201.692 42.1758C202.13 41.9857 202.608 41.8906 203.126 41.8906C203.558 41.8906 203.961 41.9544 204.333 42.082C204.708 42.2096 205.041 42.3906 205.333 42.625C205.627 42.8594 205.871 43.138 206.064 43.4609C206.256 43.7812 206.387 44.1367 206.454 44.5273H205.216ZM209.578 42V50H208.371V42H209.578ZM218.123 42V50H217.014L212.947 44.1328H212.873V50H211.666V42H212.783L216.853 47.875H216.928V42H218.123ZM223.06 43.0391V42H229.252V43.0391H226.756V50H225.553V43.0391H223.06ZM230.95 50V42H235.966V43.0391H232.157V45.4766H235.704V46.5117H232.157V48.9609H236.012V50H230.95ZM242.271 44.1016C242.229 43.7318 242.058 43.4453 241.756 43.2422C241.453 43.0365 241.073 42.9336 240.615 42.9336C240.287 42.9336 240.003 42.9857 239.763 43.0898C239.524 43.1914 239.338 43.332 239.205 43.5117C239.075 43.6888 239.009 43.8906 239.009 44.1172C239.009 44.3073 239.054 44.4714 239.142 44.6094C239.233 44.7474 239.352 44.8633 239.498 44.957C239.646 45.0482 239.805 45.125 239.974 45.1875C240.144 45.2474 240.306 45.2969 240.463 45.3359L241.244 45.5391C241.499 45.6016 241.761 45.6862 242.029 45.793C242.297 45.8997 242.546 46.0404 242.775 46.2148C243.004 46.3893 243.189 46.6055 243.33 46.8633C243.473 47.1211 243.545 47.4297 243.545 47.7891C243.545 48.2422 243.427 48.6445 243.193 48.9961C242.961 49.3477 242.624 49.625 242.181 49.8281C241.741 50.0313 241.209 50.1328 240.584 50.1328C239.985 50.1328 239.466 50.0378 239.029 49.8477C238.591 49.6576 238.249 49.388 238.002 49.0391C237.754 48.6875 237.617 48.2708 237.591 47.7891H238.802C238.826 48.0781 238.92 48.319 239.084 48.5117C239.25 48.7018 239.463 48.8437 239.72 48.9375C239.981 49.0286 240.266 49.0742 240.576 49.0742C240.917 49.0742 241.22 49.0208 241.486 48.9141C241.754 48.8047 241.965 48.6536 242.119 48.4609C242.272 48.2656 242.349 48.0378 242.349 47.7773C242.349 47.5404 242.282 47.3464 242.146 47.1953C242.013 47.0443 241.832 46.9193 241.603 46.8203C241.377 46.7214 241.12 46.6341 240.834 46.5586L239.888 46.3008C239.248 46.1263 238.74 45.8698 238.365 45.5312C237.992 45.1927 237.806 44.7448 237.806 44.1875C237.806 43.7266 237.931 43.3242 238.181 42.9805C238.431 42.6367 238.77 42.3698 239.197 42.1797C239.624 41.987 240.106 41.8906 240.642 41.8906C241.184 41.8906 241.662 41.9857 242.076 42.1758C242.492 42.3659 242.821 42.6276 243.06 42.9609C243.3 43.2917 243.425 43.6719 243.435 44.1016H242.271ZM244.922 43.0391V42H251.114V43.0391H248.618V50H247.415V43.0391H244.922Z" fill="#656565"/>
</svg>
